<?xml version="1.0" encoding="UTF-8"?>
<svg id="zaobank-logo" xmlns="http://www.w3.org/2000/svg" xmlns:xlink="http://www.w3.org/1999/xlink" version="1.1" viewBox="0 0 360 360">
  <defs>
    <linearGradient id="linear-gradient" x1="39.2" y1="430" x2="321.4" y2="430" gradientTransform="translate(0 -250)" gradientUnzaobank="userSpaceOnUse">
      <stop offset="0" stop-color="#ffeb9a"/>
      <stop offset=".2" stop-color="#fff"/>
      <stop offset=".3" stop-color="#fffef9"/>
      <stop offset=".3" stop-color="#fffbee"/>
      <stop offset=".4" stop-color="#fff7dd"/>
      <stop offset=".5" stop-color="#fff3c6"/>
      <stop offset=".5" stop-color="#ffeda9"/>
      <stop offset=".6" stop-color="#ffeb9a"/>
      <stop offset=".7" stop-color="#fff"/>
      <stop offset=".8" stop-color="#fffdf5"/>
      <stop offset=".8" stop-color="#fff9e3"/>
      <stop offset=".9" stop-color="#fff3c8"/>
      <stop offset="1" stop-color="#ffeca1"/>
      <stop offset="1" stop-color="#ffeb9a"/>
    </linearGradient>
    <radialGradient id="radial-gradient" cx="182" cy="351.3" fx="182" fy="351.3" r="152.9" gradientTransform="translate(0 -253) scale(1 1)" gradientUnzaobank="userSpaceOnUse">
      <stop offset="0" stop-color="#fffbdb"/>
      <stop offset=".2" stop-color="#fffad8"/>
      <stop offset=".3" stop-color="#fff9ce"/>
      <stop offset=".5" stop-color="#fff7be"/>
      <stop offset=".6" stop-color="#fff5a7"/>
      <stop offset=".8" stop-color="#fff289"/>
      <stop offset=".9" stop-color="#ffef5f"/>
      <stop offset="1" stop-color="#ffed46"/>
    </radialGradient>
  </defs>
  <path id="BG-base" d="M181,329c-21.2,0-32.1-7.5-43.7-15.5-6.3-4.4-12.3-8.5-20.3-12h-.1c-.9-.4-9.4-4-20.4-6.7l-14-3.4,32.5-41.7-6.8-6.7-40,34.4-3.6-14.4c-2.7-10.6-6.2-18.8-6.6-19.7h0c-3.6-7.9-7.8-13.8-12.2-20-8.1-11.4-15.8-22.2-15.8-43.2s7.6-31.8,15.7-43.2c4.4-6.2,8.6-12.2,12.2-20h0c.4-.9,4-9.1,6.6-19.8l3.6-14.4,40,34.3,6.8-6.7-32.6-41.7,14-3.4c11.3-2.7,20.1-6.5,20.4-6.7h0c7.9-3.6,13.9-7.7,20.3-12.1,11.6-8,22.5-15.5,43.6-15.5s32.1,7.5,43.7,15.5c6.4,4.4,12.3,8.5,20.3,12h.1c.9.4,9.4,4,20.3,6.7l14.1,3.4-32.7,41.5,6.8,6.8,40.2-34.2,3.6,14.4c2.7,10.7,6.2,18.8,6.6,19.7h0c3.6,7.9,7.8,13.8,12.2,20,8.1,11.4,15.7,22.2,15.7,43.2s-7.6,31.8-15.7,43.2c-4.4,6.2-8.6,12.1-12.2,20h0c-.4.9-4,9.1-6.6,19.7l-3.6,14.5-39.8-34.5-6.8,6.7,32.4,41.8-14,3.4c-11,2.6-19.5,6.3-20.5,6.7h0c-7.9,3.6-13.9,7.7-20.2,12.1-11.6,8-22.5,15.5-43.7,15.5h0Z" style="fill: #e82c2a;"/>
  <path id="BG-bottom" d="M181,319.7c-18.4,0-27.2-6.1-38.5-13.9-6.4-4.4-13-9-21.7-12.9h-.2c-1.2-.6-10.3-4.4-21.9-7.2l28.7-36.9-18.8-18.4-35.1,30.2c-2.8-11.3-6.6-20-7.2-21.2h0c-4-8.8-8.6-15.3-13.1-21.6-7.8-11.1-14-19.8-14-37.7s6.2-26.7,14-37.7c4.5-6.3,9.1-12.9,13.1-21.5h0c.6-1.3,4.3-10.1,7.2-21.4l35.2,30.2,18.7-18.5-28.8-36.8c12-2.9,21.4-6.9,21.9-7.1h.1c8.7-4,15.3-8.5,21.8-12.9,11.3-7.8,20.2-13.9,38.5-13.9s27.2,6.1,38.5,13.9c6.4,4.4,13,9,21.7,12.9h.2c1.2.6,10.2,4.4,21.8,7.2l-28.9,36.6,18.6,18.6,35.5-30.2c2.8,11.3,6.6,20.1,7.2,21.3h0c4,8.8,8.6,15.3,13.1,21.6,7.8,11.1,14,19.8,14,37.7s-6.2,26.7-14,37.8c-4.5,6.3-9.1,12.9-13.1,21.5h0c-.5,1.3-4.3,10.1-7.2,21.3l-34.9-30.2-18.8,18.4,28.6,37c-11.6,2.8-20.7,6.6-21.9,7.2h-.1c-8.7,4-15.3,8.5-21.8,12.9-11.3,7.7-20.2,13.9-38.5,13.9h0Z" style="fill: url(#linear-gradient);"/>
  <path id="BG-top" d="M181,315.4c-17.1,0-25.1-5.5-36.2-13.2-6.6-4.5-13.3-9.2-22.4-13.2h-.2c-.9-.5-7.4-3.2-16.3-5.8l27.1-34.8-24.2-23.8-33,28.5c-2.5-8.2-5-14.1-5.6-15.4v-.2c-4.2-9-9-15.7-13.5-22.2-7.7-10.9-13.2-18.7-13.2-35.3s5.5-24.4,13.2-35.3c4.6-6.5,9.3-13.2,13.5-22.2h0c.6-1.5,3.2-7.4,5.7-15.7l33.1,28.4,24.1-23.8-27.1-34.7c9.2-2.7,15.9-5.5,16.3-5.7h.2c9.1-4.1,15.9-8.8,22.4-13.3,11.1-7.6,19.1-13.2,36.2-13.2s25.1,5.5,36.2,13.2c6.6,4.5,13.4,9.2,22.4,13.2h.2c1.4.7,7.6,3.3,16.2,5.8l-27.2,34.5,24,24,33.4-28.4c2.6,8.6,5.3,14.7,5.6,15.6v.2c4.2,9,9,15.7,13.6,22.2,7.7,10.8,13.2,18.7,13.2,35.2s-5.5,24.4-13.2,35.3c-4.6,6.5-9.3,13.2-13.5,22.2h0c-.6,1.5-3.1,7.4-5.6,15.6l-32.9-28.4-24.3,23.7,27,34.9c-8.6,2.5-14.9,5.1-16.3,5.7h-.2c-9.1,4.1-15.9,8.8-22.4,13.3-11.1,7.6-19.1,13.2-36.2,13.2h0Z" style="fill: url(#radial-gradient);"/>
  <path id="icon-heart-fire" d="M206.6,74.6c5.7,11-14.8,13.5-12.9-1.1,1.9-14.6-11-21.6-15.9-22.5,17.7,11.8,2.3,22.9-1.1,26.8,3.7-12.8-8.5-15.1-9.9-15,11.8,10.8-11.5,19.5-12,37.8-.1,13.5,26.3,29.2,26.3,29.2,0,0,46.9-28.2,25.5-55.1h0Z" style="fill: #e82c2a;"/>
  <g id="icon-heart">
    <path d="M199.6,101.2c.5-4.9-2.7-8.7-9-8.7s-9.3,5.1-9.6,5.8c-.2-.7-2.2-5.8-9.4-5.8s-9.5,3.3-8.9,8.7c.9,9.4,18.4,21.6,18.4,21.6,0,0,17.5-12.2,18.4-21.6Z" style="fill: #fff;"/>
    <path d="M177,95.9c-13.6-.7-8.1,13.2-5.1,17.3-14.2-15.1-1.9-22.1,5.1-17.3Z" style="fill: #e82c2a;"/>
  </g>
  <g id="IGNITE-THE-SPIRIT">
    <g>
      <path d="M136.7,158.5h-11.4v4.2h.5c2.8.3,3.9,1.9,3.9,4.8h0c0,1.9-2.2,5.3-7.5,5.3h0c-.2,0-.5,0-.7,0-6.1,0-7-4.8-7-8.2v-13.3c0-4.5,1.3-8.2,7-8.2s8.3,4.8,8.3,8.2h6.8v-.3h.2c0,.1,0-11.8,0-11.8,0,0-.3.5-1.3,1.4-1.4,1.3-2.8,1.1-4,.6-1.3-.9-2.8-1.6-4.5-2h-.3c0,0-.1-.1-.2-.1,0,0,0,0-.1,0-1.5-.3-3.1-.5-4.8-.5-10.2,0-15.9,4.6-15.9,12.7v13.3c0,7,5.3,12.8,15.9,12.8s7.3-.9,9.8-2.4c1.2-.4,2.8-.4,4,.8.9.9,1.4,1.4,1.4,1.4v-10.9c.4-2.4,1.9-3.4,3.7-3.6h0v-4.2h-3.8Z"/>
      <path d="M260.2,139.1h-8s-3.9,0-3.9,0v4.4h0c1.9.2,3.6,1.4,3.9,4v24.2h0c0,3.2-2.1,5.1-4.2,5.3h0v.3h30.2v-10.4h-4.5c-.2,1.8-1.4,4.5-4.2,4.9h-9v-12.1s9.1,0,9.1,0v-4h-9.1v-12.6s8.2,0,8.2,0h0c3.4,0,4.9,3.1,5.1,5h0c0,0,4.5,0,4.5,0v-9.1h-17.8Z"/>
      <path d="M230.9,139.1h-20.7v10h4.5c.2-2,1.7-5.7,5.1-5.7h0,3.5v24.8h0c0,3.2-1.8,4.6-3.9,4.9h0v4.4h15.8v-4.4h0c-1.8-.2-3.3-1.2-3.8-3.5v-26.2c0,0,3.2,0,3.2,0h0c3.4,0,4.9,3.7,5.1,5.6h0c0,0,4.5,0,4.5,0v-10h-12.9Z"/>
      <path d="M97.9,143.4h0v-4.4h-15.8v4.4h0c2.1.2,4,1.7,4,5h0c0,0,0,19.8,0,19.8h0c0,3.2-1.8,4.7-4,4.9h0v4.4h15.8v-4.4h0c-1.8-.2-3.3-1.2-3.8-3.5v-22.1c.2-2.6,1.9-3.8,3.8-4h0Z"/>
      <path d="M203.6,143.4h0v-4.4h-15.8v4.4h0c2.1.2,4,1.7,4,5h0c0-.1,0,19.8,0,19.8h0c0,3.2-1.8,4.6-4,4.9h0v4.4h15.8v-4.4h0c-1.8-.2-3.3-1.2-3.8-3.4v-22.2c.2-2.6,1.9-3.8,3.8-4h0Z"/>
      <path d="M172,139.1h-3.8v4.4h0c1.7.2,3.2,1.1,3.8,3.2v16.1c.1,0-13.6-23.7-13.6-23.7h-10.2.1c0,0-3.4,0-3.4,0v.6h0c2.1.2,4,1.6,4,4.9h0c0,0,0,23.5,0,23.5h0c0,3.1-1.8,4.6-4,4.8h0v4.4h13.6v-4.4h0c-1.8-.2-3.3-1.2-3.8-3.4v-20.2c0,0,16.4,28.3,16.4,28.3h6.3v-27.9c0,0,0,0,0-.1,0-5.2,1.2-6.3,3.7-6.3h.2v-4.3h-9.4Z"/>
    </g>
    <g>
      <path d="M175.9,182.4s0,0,0,.1c-1.1,0-1.6.2-2.5.7-.9.5-2.3,1.4-3.4.3-.6-.5-.7-.8-.7-.8v.2h-10.5v4.1h0c2.1.2,3.8,1.6,3.8,4.7h0c0-.1,0,19.1,0,19.1-.3,2.5-1.9,3.7-3.7,3.9h0v4.1h14c0,0,0-3.8,0-3.8h.1c-2,0-3.1-1.4-3.4-3.8v-7c1.9,0,4.4.2,4.4.2,10.6,0,14.4-4.9,14.4-10.6v-.2c0-5.7-3.9-11.2-12.5-11.2h0ZM181,193.8c0,3.2-1.2,7.3-7,7.3s-3.2,0-4.5,0v-11.5c.3-2.8,2-3.6,6.5-3.6,3,0,5.1,4.6,5.1,7.7v.2h0Z"/>
      <path d="M300.3,182.4h-31.9v9.5h4.3c.2-1.9,1.6-5.4,4.8-5.4h0,3.3v23.6h0c0,3-1.7,4.4-3.8,4.6h0v4.2h15v-4.2h0c-1.7-.2-3.2-1.1-3.6-3.3v-24.9c0,0,3.1,0,3.1,0h0c3.2,0,4.6,3.5,4.8,5.3h0c0,0,4.3,0,4.3,0v-5.4h0v-4.1h0Z"/>
      <path d="M206.7,186.6h0v-4.2h-15v4.2h0c2,.2,3.8,1.6,3.8,4.7h0c0-.1,0,18.7,0,18.7h0c0,3-1.7,4.4-3.8,4.6h0v4.2h15v-4.2h0c-1.7-.2-3.2-1.2-3.6-3.3v-21c.2-2.5,1.8-3.6,3.6-3.8h0Z"/>
      <path d="M264,186.6h0v-4.2h-15v4.2h0c2,.2,3.7,1.6,3.7,4.7h0c0-.1,0,18.8,0,18.8h0c0,3-1.7,4.4-3.7,4.6h0v4.2h15v-4.2h0c-1.7-.2-3.2-1.2-3.6-3.3v-21c.2-2.4,1.8-3.6,3.6-3.7h0Z"/>
      <path d="M147.8,191.8c-.2-2.5-1.9-6.1-7.7-6.1s-5.2,2.6-5.2,4.5c0,3.3,2.4,3.6,6.9,4.8,7.9,2.3,11.8,5.5,11.8,12.5s-4.7,11.6-11.2,11.6-4.3-.8-5.6-1.4c-2.5-1.2-5.5-1.1-5.6,1h-3.4v-12.4h3.4c0,7.1,6.3,9.2,10.4,9.2s4.8-3.1,4.8-5.7-3.6-4.8-5.6-5.6l-4.7-1.9c-5.4-2.2-7.8-4.6-7.8-10.4s4.9-9.7,10.8-9.7,6.8,1.7,9.4,1.7,3.6-.7,3.4-1.5h0v9.6h-4.2Z"/>
      <path d="M240.7,210.8l-5.3-7.3c5.5-1.7,7.6-5.5,7.6-9.8v-.2c0-5.7-3.9-11.3-12.4-11.3s0,0,0,.1c-1.1,0-1.6.2-2.4.7-.9.5-2.3,1.4-3.4.3-.5-.5-.7-.8-.7-.8v.2h-10.4v4.2h0c2,.2,3.8,1.6,3.8,4.7h0c0-.1,0,19.3,0,19.3-.3,2.5-1.9,3.7-3.7,3.9h0v4.2h13.9c0,0,0-3.8,0-3.8h.1c-2,0-3-1.4-3.4-3.7v-7.1c1.9,0,4.3.2,4.4.2h.9l4.4,6.7c2.5,3.1-.9,3.6-1.9,3.6h-.2v4.2h14.5v-4.2h0c-1,0-3-.2-5.6-3.8h0ZM224.1,189.4c.4-2.8,2-3.5,6.5-3.6,3,0,5,4.6,5,7.8v.2c0,3.2-1.2,7.3-7,7.3s-3.1,0-4.5,0v-11.6s0,0,0,0Z"/>
    </g>
    <g>
      <path d="M108.7,190.5h-6.1v2.2h0c1,.1,1.8.7,2,2.1v12.4h0c0,1.7-1.1,2.6-2.2,2.7h0v.2h15.4v-5.3h-2.3c-.1.9-.7,2.3-2.1,2.5h-4.6v-6.2s4.6,0,4.6,0v-2.1h-4.7v-6.4s4.2,0,4.2,0h0c1.7,0,2.5,1.6,2.6,2.6h0s2.3,0,2.3,0v-4.7h-9.1Z"/>
      <path d="M69.5,190.4h-10.6v5.1h2.3c.1-1,.9-2.9,2.6-2.9h1.8v12.7h0c0,1.6-.9,2.4-2,2.5h0v2.2h8.1v-2.2h0c-.9,0-1.7-.6-1.9-1.8v-13.4c0,0,1.6,0,1.6,0h0c1.7,0,2.5,1.9,2.6,2.9h0s2.3,0,2.3,0v-5.1h-6.6Z"/>
      <g>
        <path d="M99.2,192.7h0v-2.2h-8.1v2.2h0c1.1.1,2,.9,2,2.6h0c0,0,0,10.1,0,10.1h0c0,1.6-.9,2.4-2,2.5h0v2.2h8.1v-2.2h0c-.9,0-1.7-.6-1.9-1.8v-11.3c.1-1.3,1-1.9,1.9-2h0Z"/>
        <path d="M85,206v-5s8.3,0,8.3,0v-2.1h-8.3v-4.3c.2-1.3,1-1.9,2-2.1h0v-2.2h-8.1v2.2h0c1.1.1,2,.9,2,2.6h0c0,0,0,10.1,0,10.1h0c0,1.6-.9,2.4-2,2.5h0v2.2h8.1v-2.2h0c-.9-.1-1.7-.6-1.9-1.8Z"/>
      </g>
    </g>
  </g>
  <g id="CHICAGO" style="isolation: isolate;">
    <path d="M136.9,278.8c-4.3,0-7.4-3.2-7.4-7.3s3.1-7.4,7.6-7.4,4.3.9,5.7,2.2l-1.6,1.9c-1.2-1.1-2.4-1.8-4.1-1.8-2.8,0-4.8,2.2-4.8,5s2,5.1,4.8,5.1,2.9-.7,4.2-1.9l1.6,1.6c-1.5,1.5-3.2,2.5-5.9,2.5h0Z" style="fill: #d5292f;"/>
    <path d="M148.1,272.6v6h-2.6v-14.2h2.6v5.9h7v-5.9h2.6v14.2h-2.6v-6h-7Z" style="fill: #d5292f;"/>
    <path d="M164.1,264.3v14.2h-2.6v-14.2h2.6Z" style="fill: #d5292f;"/>
    <path d="M174.8,278.8c-4.3,0-7.4-3.2-7.4-7.3s3.1-7.4,7.6-7.4,4.3.9,5.7,2.2l-1.6,1.9c-1.2-1.1-2.4-1.8-4.1-1.8-2.8,0-4.8,2.2-4.8,5s2,5.1,4.8,5.1,2.9-.7,4.2-1.9l1.6,1.6c-1.5,1.5-3.2,2.5-5.9,2.5h0Z" style="fill: #d5292f;"/>
    <path d="M197.5,278.6h-2.7l-1.5-3.4h-6.9l-1.5,3.4h-2.6l6.4-14.3h2.4l6.4,14.3h0ZM189.8,267.2l-2.5,5.7h5l-2.5-5.7Z" style="fill: #d5292f;"/>
    <path d="M206,278.8c-4.6,0-7.6-3.2-7.6-7.3s3.1-7.4,7.6-7.4,4.1.7,5.6,1.9l-1.6,1.9c-1.1-.9-2.2-1.5-4.1-1.5-2.7,0-4.8,2.3-4.8,5s2,5.1,5,5.1,2.6-.4,3.5-1.1v-2.7h-3.7v-2.2h6.2v6c-1.4,1.2-3.5,2.2-6.1,2.2h0Z" style="fill: #d5292f;"/>
    <path d="M222.4,278.8c-4.5,0-7.6-3.3-7.6-7.3s3.2-7.4,7.7-7.4,7.6,3.3,7.6,7.3-3.2,7.4-7.7,7.4ZM222.4,266.4c-2.9,0-4.9,2.3-4.9,5s2.1,5.1,5,5.1,4.9-2.3,4.9-5-2.1-5.1-5-5.1Z" style="fill: #d5292f;"/>
  </g>
  <g id="EST-2003" style="isolation: isolate;">
    <path d="M155.1,287h-5.5v2.3h4.8v1.4h-4.8v2.4h5.5v1.4h-7.2v-8.9h7.1v1.4h0Z"/>
    <path d="M160.9,289.3c2,.5,3.1,1.1,3.1,2.6s-1.4,2.7-3.4,2.7-2.9-.5-4-1.4l1-1.1c.9.7,1.9,1.2,3,1.2s1.7-.5,1.7-1.1-.4-1-2.2-1.4c-2.1-.5-3.2-1-3.2-2.7s1.4-2.6,3.3-2.6,2.5.4,3.5,1.1l-.9,1.2c-.9-.6-1.7-.9-2.6-.9s-1.6.5-1.6,1.1.4,1,2.3,1.4h0Z"/>
    <path d="M169.9,294.5h-1.7v-7.5h-3.1v-1.5h7.8v1.5h-3.1v7.5Z"/>
    <path d="M179.6,288.2l-1.2-.9c.9-1.2,1.8-1.9,3.6-1.9s3.2,1.1,3.2,2.7-.8,2.2-2.5,3.5l-2,1.5h4.6v1.4h-7v-1.2l3.3-2.6c1.3-1,1.8-1.6,1.8-2.4s-.7-1.4-1.6-1.4-1.5.5-2.2,1.3h0Z"/>
    <path d="M191,294.6c-2.5,0-4.2-2-4.2-4.6s1.7-4.6,4.2-4.6,4.2,2,4.2,4.6-1.7,4.6-4.2,4.6ZM191,286.8c-1.5,0-2.4,1.4-2.4,3.2s1,3.2,2.5,3.2,2.4-1.4,2.4-3.2-1-3.2-2.5-3.2Z"/>
    <path d="M201,294.6c-2.5,0-4.2-2-4.2-4.6s1.7-4.6,4.2-4.6,4.2,2,4.2,4.6-1.7,4.6-4.2,4.6ZM201,286.8c-1.5,0-2.4,1.4-2.4,3.2s1,3.2,2.5,3.2,2.4-1.4,2.4-3.2-1-3.2-2.5-3.2Z"/>
    <path d="M207,286.9v-1.4h6.4v1.2l-2.7,2.5c1.5.2,2.8.9,2.8,2.5s-1.4,2.8-3.4,2.8-2.9-.6-3.7-1.6l1.2-1c.7.8,1.5,1.2,2.5,1.2s1.7-.5,1.7-1.4-.9-1.4-2.2-1.4h-.8l-.3-1,2.6-2.6h-4.2,0Z"/>
  </g>
  <g id="FUND">
    <path d="M148.7,232.1v3.9h8.7v3.7h-8.7v7.1h-4v-18.3h13.9v3.6h-9.9Z"/>
    <path d="M170.5,247c-4.9,0-7.9-2.7-7.9-8.1v-10.4h4v10.3c0,3,1.5,4.5,3.9,4.5s3.9-1.5,3.9-4.4v-10.5h4v10.3c0,5.5-3.1,8.2-8,8.2Z"/>
    <path d="M196.5,246.7l-8.9-11.6v11.6h-4v-18.3h3.7l8.6,11.2v-11.2h4v18.3h-3.4Z"/>
    <path d="M212.6,246.7h-7.1v-18.3h7.1c5.8,0,9.7,3.9,9.7,9.1h0c0,5.2-4,9.2-9.7,9.2ZM218.1,237.6c0-3.2-2.2-5.5-5.5-5.5h-3.1v11h3.1c3.3,0,5.5-2.2,5.5-5.5h0Z"/>
  </g>
</svg>