<?xml version="1.0" encoding="UTF-8"?>
<svg width="100pt" height="100pt" version="1.1" viewBox="0 0 100 100" xmlns="http://www.w3.org/2000/svg">
 <g>
  <path d="m50 0c-27.344-0.019531-49.516 22.375-49.539 49.973 0.023437 27.645 22.195 50.039 49.539 50.027 27.352 0.011719 49.52-22.383 49.543-50.027-0.023438-27.598-22.191-49.992-49.543-49.973zm0 88.477c-21.035 0-38.094-17.227-38.078-38.504-0.019531-21.23 17.039-38.461 38.078-38.453 21.047-0.011719 38.105 17.223 38.133 38.453-0.027343 21.281-17.086 38.504-38.133 38.504z"/>
  <path d="m72.027 37.465l-9.4961-9.4961-12.531 12.535-12.535-12.535-9.4961 9.4961 12.539 12.543-12.539 12.527 9.4961 9.4961 12.535-12.535 12.531 12.535 9.4961-9.4961-12.531-12.527z"/>
 </g>
</svg>
