<?xml version="1.0" encoding="utf-8"?>
<!-- Generator: Adobe Illustrator 28.0.0, SVG Export Plug-In . SVG Version: 6.00 Build 0)  -->
<svg version="1.1" id="Layer_1" xmlns="http://www.w3.org/2000/svg" xmlns:xlink="http://www.w3.org/1999/xlink" x="0px" y="0px"
	 viewBox="0 0 30 30" style="enable-background:new 0 0 30 30;" xml:space="preserve">
<path d="M15,6.8c2.7,0,3,0,4.1,0c1,0,1.4,0.2,1.8,0.4c0.5,0.2,0.8,0.4,1.2,0.7c0.4,0.4,0.6,0.7,0.7,1.2c0.1,0.4,0.2,0.8,0.4,1.8
	c0,1.1,0,1.3,0,4.1c0,2.8,0,3,0,4.1c0,1-0.2,1.4-0.4,1.8c-0.2,0.5-0.4,0.8-0.7,1.2c-0.4,0.4-0.7,0.6-1.2,0.7
	c-0.4,0.1-0.8,0.2-1.8,0.4c-1.1,0-1.3,0-4.1,0c-2.8,0-3,0-4.1,0c-1,0-1.4-0.2-1.8-0.4c-0.5-0.2-0.8-0.4-1.2-0.7
	c-0.4-0.4-0.6-0.7-0.7-1.2c-0.1-0.4-0.2-0.8-0.4-1.8c0-1.1,0-1.3,0-4.1c0-2.8,0-3,0-4.1c0-1,0.2-1.4,0.4-1.8
	c0.2-0.5,0.4-0.8,0.7-1.2c0.4-0.4,0.7-0.6,1.2-0.7C9.5,7,9.9,6.9,10.9,6.8C12,6.8,12.3,6.8,15,6.8z M15,5c-2.8,0-3,0-4.1,0
	C9.8,5,9.1,5.2,8.5,5.5C7.9,5.7,7.3,6.1,6.7,6.7S5.8,7.8,5.5,8.5C5.2,9.1,5.1,9.8,5,10.9C5,12,5,12.3,5,15c0,2.8,0,3,0,4.1
	c0,1.1,0.2,1.8,0.5,2.4c0.2,0.6,0.6,1.2,1.2,1.8c0.6,0.6,1.1,0.8,1.8,1.2c0.6,0.2,1.3,0.4,2.4,0.5c1.1,0,1.4,0,4.1,0s3,0,4.1,0
	c1.1,0,1.8-0.2,2.4-0.5c0.6-0.2,1.2-0.6,1.8-1.2c0.6-0.6,0.8-1.1,1.2-1.8c0.2-0.6,0.4-1.3,0.5-2.4c0-1.1,0-1.4,0-4.1s0-3,0-4.1
	c0-1.1-0.2-1.8-0.5-2.4c-0.2-0.6-0.6-1.2-1.2-1.8c-0.6-0.6-1.1-0.8-1.8-1.2c-0.6-0.2-1.3-0.4-2.4-0.5C18,5,17.8,5,15,5z"/>
<path d="M15,9.8c-2.9,0-5.2,2.3-5.2,5.2c0,2.9,2.3,5.2,5.2,5.2c2.9,0,5.2-2.3,5.2-5.2C20.2,12.1,17.9,9.8,15,9.8z M15,18.4
	c-1.8,0-3.4-1.4-3.4-3.4c0-1.8,1.4-3.4,3.4-3.4c1.8,0,3.4,1.4,3.4,3.4C18.4,16.8,16.8,18.4,15,18.4z"/>
<path d="M20.3,10.9c0.7,0,1.2-0.5,1.2-1.2c0-0.7-0.5-1.2-1.2-1.2c-0.7,0-1.2,0.5-1.2,1.2C19.1,10.4,19.6,10.9,20.3,10.9z"/>
</svg>
