<?xml version="1.0" encoding="utf-8"?>
<!-- Generator: Adobe Illustrator 28.1.0, SVG Export Plug-In . SVG Version: 6.00 Build 0)  -->
<svg version="1.1" id="Layer_1" xmlns="http://www.w3.org/2000/svg" xmlns:xlink="http://www.w3.org/1999/xlink" x="0px" y="0px"
	 viewBox="0 0 30 30" enable-background="new 0 0 30 30" xml:space="preserve">
<path d="M15,2.1C7.9,2.1,2.1,7.9,2.1,15c0,7.1,5.8,12.9,12.9,12.9S27.9,22.1,27.9,15C27.9,7.9,22.1,2.1,15,2.1z M20.9,20.7
	c-0.2,0.3-0.4,0.4-0.7,0.4c-0.1,0-0.3,0-0.4-0.1C14.7,18,8.6,19.7,8.6,19.7c-0.4,0.1-0.9-0.1-1.1-0.6c-0.1-0.4,0.1-0.9,0.6-1.1
	c0.3-0.1,6.8-2,12.5,1.4C21,19.8,21.2,20.3,20.9,20.7z M22.5,17.2c-0.2,0.3-0.5,0.5-0.9,0.5c-0.2,0-0.3,0-0.5-0.1
	C14.8,13.9,8.3,16,8.3,16c-0.5,0.2-1.1-0.1-1.3-0.6c-0.2-0.5,0.1-1.1,0.6-1.3c0.3-0.1,7.4-2.4,14.5,1.7
	C22.6,16.1,22.8,16.7,22.5,17.2z M23.2,13.7c-0.2,0-0.4,0-0.6-0.1C15.3,9.7,7.7,12,7.7,12c-0.6,0.2-1.3-0.2-1.5-0.8
	c-0.2-0.6,0.2-1.3,0.8-1.5c0.3-0.1,8.6-2.6,16.9,1.7c0.6,0.3,0.8,1.1,0.5,1.7C24.1,13.5,23.7,13.7,23.2,13.7z"/>
</svg>
