<?xml version="1.0" encoding="utf-8"?>
<!-- Generator: Adobe Illustrator 28.0.0, SVG Export Plug-In . SVG Version: 6.00 Build 0)  -->
<svg version="1.1" id="Layer_1" xmlns="http://www.w3.org/2000/svg" xmlns:xlink="http://www.w3.org/1999/xlink" x="0px" y="0px"
	 viewBox="0 0 30 30" style="enable-background:new 0 0 30 30;" xml:space="preserve">
<path d="M24.1,9.3c-1.4,0-2.7-0.6-3.7-1.5c-1-1-1.5-2.3-1.5-3.7h-3.8v14.7c0,0.7-0.2,1.3-0.6,1.9c-0.4,0.5-0.9,0.9-1.6,1.2
	s-1.3,0.2-2,0c-0.6-0.2-1.2-0.6-1.6-1.1c-0.4-0.5-0.6-1.2-0.6-1.9c0-0.7,0.2-1.3,0.6-1.9c0.4-0.6,0.9-1,1.6-1.2
	c0.6-0.2,1.3-0.2,2-0.1V12c-1.4-0.2-2.8,0.1-4,0.7c-1.2,0.6-2.2,1.6-2.9,2.8c-0.7,1.2-0.9,2.6-0.8,4s0.7,2.7,1.6,3.7
	c0.9,1,2.1,1.8,3.4,2.1c1.3,0.3,2.7,0.3,4-0.2c1.3-0.5,2.4-1.4,3.2-2.5c0.8-1.1,1.2-2.5,1.2-3.9l0.1-7.4c1.5,1.1,3.4,1.7,5.3,1.7
	L24.1,9.3z"/>
</svg>
