<?xml version="1.0" encoding="utf-8"?>
<!-- Generator: Adobe Illustrator 28.1.0, SVG Export Plug-In . SVG Version: 6.00 Build 0)  -->
<svg version="1.1" id="Layer_1" xmlns="http://www.w3.org/2000/svg" xmlns:xlink="http://www.w3.org/1999/xlink" x="0px" y="0px"
	 viewBox="0 0 30 30" enable-background="new 0 0 30 30" xml:space="preserve">
<path fill-rule="evenodd" clip-rule="evenodd" d="M3.4,3.4c-1.9,1.9-1.9,4.9-1.9,11v1.1c0,6.1,0,9.2,1.9,11c1.9,1.9,4.9,1.9,11,1.9
	h1.1c6.1,0,9.2,0,11-1.9c1.9-1.9,1.9-4.9,1.9-11v-1.1c0-6.1,0-9.2-1.9-11c-1.9-1.9-4.9-1.9-11-1.9h-1.1C8.4,1.5,5.3,1.5,3.4,3.4z
	 M6.1,9.7c0.1,7,3.7,11.2,9.8,11.2h0.3v-4c2.3,0.2,4,1.9,4.7,4h3.2c-0.9-3.2-3.2-5-4.6-5.6c1.4-0.8,3.5-2.9,3.9-5.6h-2.9
	c-0.6,2.2-2.5,4.2-4.3,4.4V9.7h-2.9v7.8c-1.8-0.4-4.1-2.6-4.2-7.8H6.1z"/>
</svg>
