<?xml version="1.0" encoding="utf-8"?>
<!-- Generator: Adobe Illustrator 28.0.0, SVG Export Plug-In . SVG Version: 6.00 Build 0)  -->
<svg version="1.1" id="Layer_1" xmlns="http://www.w3.org/2000/svg" xmlns:xlink="http://www.w3.org/1999/xlink" x="0px" y="0px"
	 viewBox="0 0 30 30" style="enable-background:new 0 0 30 30;" xml:space="preserve">
<style type="text/css">
	.st0{fill-rule:evenodd;clip-rule:evenodd;}
</style>
<path class="st0" d="M6.3,22.1c-0.4-0.1-0.8-0.3-1-0.6c-0.3-0.3-0.5-0.6-0.6-1c-0.7-2-1-10.2,0.5-11.8c0.5-0.5,1.1-0.9,1.8-0.9
	c3.8-0.4,15.5-0.3,16.9,0.1c0.4,0.1,0.7,0.3,1,0.6c0.3,0.3,0.5,0.6,0.6,1c0.8,2,0.8,9.4-0.1,11.4c-0.2,0.5-0.7,0.9-1.2,1.2
	C22.7,22.7,8.1,22.7,6.3,22.1z M12.3,18.2l6.8-3.5l-6.8-3.5V18.2z"/>
</svg>
